<?xml version="1.0" encoding="UTF-8"?>
<svg width="31px" height="25px" viewBox="0 0 31 25" version="1.1" xmlns="http://www.w3.org/2000/svg" xmlns:xlink="http://www.w3.org/1999/xlink">
    <!-- Generator: Sketch 57.1 (83088) - https://sketch.com -->
    <title>footer-twitter</title>
    <desc>Created with Sketch.</desc>
    <defs>
        <linearGradient x1="100%" y1="17.4817898%" x2="0%" y2="82.5182102%" id="linearGradient-1">
            <stop stop-color="#E8D8AB" offset="0%"></stop>
            <stop stop-color="#CDAF73" offset="100%"></stop>
        </linearGradient>
    </defs>
    <g id="Page-1" stroke="none" stroke-width="1" fill="none" fill-rule="evenodd">
        <g id="Buytolet---Home" transform="translate(-631.000000, -3643.000000)" fill="url(#linearGradient-1)" fill-rule="nonzero">
            <g id="Footer" transform="translate(-5.000000, 3356.000000)">
                <g id="Contact" transform="translate(634.000000, 135.000000)">
                    <g id="icons8-twitter_filled" transform="translate(2.000000, 152.000000)">
                        <path d="M31,2.95866475 C29.8572209,3.4621656 28.6322968,3.80023009 27.3445563,3.95367787 C28.6588732,3.17205292 29.6687708,1.93488017 30.1423114,0.462740816 C28.9149714,1.18442477 27.5499182,1.70950405 26.1027198,1.99242309 C24.9430285,0.764840831 23.2904682,0 21.4615385,0 C17.9486403,0 15.1001482,2.82439794 15.1001482,6.31054006 C15.1001482,6.8044498 15.1581328,7.28637159 15.2668537,7.74911302 C9.9805939,7.48537434 5.29592381,4.9726669 2.1575095,1.15325584 C1.60907196,2.08832796 1.29740506,3.17205292 1.29740506,4.32770684 C1.29740506,6.51673521 2.41844005,8.44921853 4.12656834,9.5832934 C3.08284611,9.54972639 2.1019408,9.26440988 1.24425223,8.79207796 C1.24425223,8.81845195 1.24425223,8.84482594 1.24425223,8.87119993 C1.24425223,11.9305651 3.43800174,14.4792364 6.3444784,15.0618586 C5.81295318,15.2057159 5.25001982,15.2824398 4.67017413,15.2824398 C4.2594498,15.2824398 3.86080604,15.2440778 3.47182638,15.167354 C4.28361034,17.6728684 6.63198537,19.5022538 9.41282817,19.5526037 C7.23840685,21.2453249 4.49622043,22.2523259 1.51484688,22.2523259 C1.00023399,22.2523259 0.495285197,22.2235545 0,22.1636141 C2.81225145,23.9570351 6.15602824,25 9.74865562,25 C21.4470426,25 27.8446734,15.3831402 27.8446734,7.04421196 C27.8446734,6.77088341 27.8374251,6.49515677 27.827761,6.22662315 C29.0695969,5.33710538 30.1471438,4.22460896 31,2.95866475 Z" id="footer-twitter"></path>
                    </g>
                </g>
            </g>
        </g>
    </g>
</svg>