<?xml version="1.0" encoding="UTF-8"?>
<svg width="34px" height="34px" viewBox="0 0 34 34" version="1.1" xmlns="http://www.w3.org/2000/svg" xmlns:xlink="http://www.w3.org/1999/xlink">
    <!-- Generator: Sketch 57.1 (83088) - https://sketch.com -->
    <title>footer-facebook</title>
    <desc>Created with Sketch.</desc>
    <defs>
        <linearGradient x1="100%" y1="0%" x2="0%" y2="100%" id="linearGradient-1">
            <stop stop-color="#E8D8AB" offset="0%"></stop>
            <stop stop-color="#CDAF73" offset="100%"></stop>
        </linearGradient>
    </defs>
    <g id="Page-1" stroke="none" stroke-width="1" fill="none" fill-rule="evenodd">
        <g id="Buytolet---Home" transform="translate(-962.000000, -3491.000000)" fill="url(#linearGradient-1)" fill-rule="nonzero">
            <g id="Footer" transform="translate(-5.000000, 3356.000000)">
                <g id="Facebook-signup" transform="translate(967.000000, 135.000000)">
                    <path d="M30.9090909,0 L3.09090909,0 C1.38318182,0 0,1.38318182 0,3.09090909 L0,30.9090909 C0,32.6168182 1.38318182,34 3.09090909,34 L18.5454545,34 L18.5454545,20.0909091 L13.9090909,20.0909091 L13.9090909,15.4545455 L18.5454545,15.4545455 L18.5454545,12.9648182 C18.5454545,8.25118182 20.842,6.18181818 24.7597273,6.18181818 C26.6359091,6.18181818 27.6280909,6.32090909 28.0979091,6.38427273 L28.0979091,10.8181818 L25.4258182,10.8181818 C23.7629091,10.8181818 23.1818182,11.696 23.1818182,13.4732727 L23.1818182,15.4545455 L28.0561818,15.4545455 L27.3947273,20.0909091 L23.1818182,20.0909091 L23.1818182,34 L30.9090909,34 C32.6168182,34 34,32.6168182 34,30.9090909 L34,3.09090909 C34,1.38318182 32.6152727,0 30.9090909,0 Z" id="footer-facebook"></path>
                </g>
            </g>
        </g>
    </g>
</svg>