<?xml version="1.0" encoding="UTF-8"?>
<svg width="25px" height="28px" viewBox="0 0 25 28" version="1.1" xmlns="http://www.w3.org/2000/svg" xmlns:xlink="http://www.w3.org/1999/xlink">
    <!-- Generator: Sketch 57.1 (83088) - https://sketch.com -->
    <title>footer-phone</title>
    <desc>Created with Sketch.</desc>
    <g id="Page-1" stroke="none" stroke-width="1" fill="none" fill-rule="evenodd">
        <g id="Buytolet---Home" transform="translate(-632.000000, -3548.000000)" fill="#E8D7AA" fill-rule="nonzero">
            <g id="Footer" transform="translate(-5.000000, 3356.000000)">
                <g id="Contact" transform="translate(634.000000, 135.000000)">
                    <g id="icons8-phonelink_ring" transform="translate(3.000000, 57.000000)">
                        <path d="M1.88346542,0 C0.856009805,0 0.0091518048,0.862571182 0.0091518048,1.90909091 L0.0091518048,3.71129245 C-0.0030506016,3.78089473 -0.0030506016,3.850497 0.0091518048,3.91761364 L0.0091518048,23.4385652 C-0.0030506016,23.5081675 -0.0030506016,23.5777697 0.0091518048,23.6448864 L0.0091518048,26.0909091 C0.0091518048,27.1374288 0.856009805,28 1.88346542,28 L14.3788895,28 C15.4063451,28 16.2532031,27.1374288 16.2532031,26.0909091 L16.2532031,23.6523439 C16.2654055,23.5827416 16.2654055,23.5131394 16.2532031,23.4460227 L16.2532031,3.92507118 C16.2654055,3.85546891 16.2654055,3.78586664 16.2532031,3.71875 L16.2532031,1.90909091 C16.2532031,0.862571182 15.4063451,0 14.3788895,0 L1.88346542,0 Z M1.88346542,1.27272727 L14.3788895,1.27272727 C14.7254426,1.27272727 15.0036607,1.55610827 15.0036607,1.90909091 L15.0036607,3.18181818 L1.25869421,3.18181818 L1.25869421,1.90909091 C1.25869421,1.55610827 1.53691295,1.27272727 1.88346542,1.27272727 Z M1.25869421,4.45454545 L15.0036607,4.45454545 L15.0036607,22.9090909 L1.25869421,22.9090909 L1.25869421,4.45454545 Z M21.6491765,5.95845155 L20.7632703,6.86079545 C22.591214,8.55113636 23.7504576,10.9747871 23.7504576,13.6818182 C23.7504576,16.2247871 22.7303237,18.5291196 21.0902993,20.1995742 L21.9664428,21.0919743 C23.8358757,19.1928265 25,16.5777697 25,13.6818182 C25,10.6242901 23.7016473,7.87997191 21.6491765,5.95845155 Z M18.9987796,8.65802573 L18.1079926,9.56534091 C19.2623549,10.5546878 20.0018304,12.0287644 20.0018304,13.6818182 C20.0018304,15.1732955 19.3965833,16.515625 18.4350216,17.4950287 L19.3184869,18.3948864 C20.5070166,17.1867901 21.2513728,15.5237925 21.2513728,13.6818182 C21.2513728,11.6782674 20.3752286,9.88352273 18.9987796,8.65802573 Z M1.25869421,24.1818182 L15.0036607,24.1818182 L15.0036607,26.0909091 C15.0036607,26.4438924 14.7254426,26.7272727 14.3788895,26.7272727 L1.88346542,26.7272727 C1.53691295,26.7272727 1.25869421,26.4438924 1.25869421,26.0909091 L1.25869421,24.1818182 Z M6.25686385,24.8181818 C6.0323367,24.8156962 5.82245294,24.9350144 5.70774869,25.133878 C5.5954848,25.3327416 5.5954848,25.5763493 5.70774869,25.7752129 C5.82245294,25.9740765 6.0323367,26.0933947 6.25686385,26.0909091 L10.0054911,26.0909091 C10.2300182,26.0933947 10.4399026,25.9740765 10.5546062,25.7752129 C10.6668701,25.5763493 10.6668701,25.3327416 10.5546062,25.133878 C10.4399026,24.9350144 10.2300182,24.8156962 10.0054911,24.8181818 L6.25686385,24.8181818 Z" id="footer-phone"></path>
                    </g>
                </g>
            </g>
        </g>
    </g>
</svg>