<?xml version="1.0" encoding="UTF-8"?>
<svg width="25px" height="25px" viewBox="0 0 25 25" version="1.1" xmlns="http://www.w3.org/2000/svg" xmlns:xlink="http://www.w3.org/1999/xlink">
    <!-- Generator: Sketch 57.1 (83088) - https://sketch.com -->
    <title>footer-instagram</title>
    <desc>Created with Sketch.</desc>
    <defs>
        <linearGradient x1="100%" y1="0%" x2="0%" y2="100%" id="linearGradient-1">
            <stop stop-color="#E8D8AB" offset="0%"></stop>
            <stop stop-color="#CDAF73" offset="100%"></stop>
        </linearGradient>
    </defs>
    <g id="Page-1" stroke="none" stroke-width="1" fill="none" fill-rule="evenodd">
        <g id="Buytolet---Home" transform="translate(-680.000000, -3643.000000)" fill="url(#linearGradient-1)" fill-rule="nonzero">
            <g id="Footer" transform="translate(-5.000000, 3356.000000)">
                <g id="Contact" transform="translate(634.000000, 135.000000)">
                    <g id="icons8-instagram_new" transform="translate(51.000000, 152.000000)">
                        <path d="M6.94444444,0 C3.10972222,0 0,3.10972222 0,6.94444444 L0,18.0555556 C0,21.8902778 3.10972222,25 6.94444444,25 L18.0555556,25 C21.8902778,25 25,21.8902778 25,18.0555556 L25,6.94444444 C25,3.10972222 21.8902778,0 18.0555556,0 L6.94444444,0 Z M20.8333333,2.77777778 C21.6,2.77777778 22.2222222,3.4 22.2222222,4.16666667 C22.2222222,4.93333333 21.6,5.55555556 20.8333333,5.55555556 C20.0666667,5.55555556 19.4444444,4.93333333 19.4444444,4.16666667 C19.4444444,3.4 20.0666667,2.77777778 20.8333333,2.77777778 Z M12.5,5.55555556 C16.3347222,5.55555556 19.4444444,8.66527778 19.4444444,12.5 C19.4444444,16.3347222 16.3347222,19.4444444 12.5,19.4444444 C8.66527778,19.4444444 5.55555556,16.3347222 5.55555556,12.5 C5.55555556,8.66527778 8.66527778,5.55555556 12.5,5.55555556 Z M12.5,8.33333333 C10.1988135,8.33333333 8.33333333,10.1988135 8.33333333,12.5 C8.33333333,14.8011865 10.1988135,16.6666667 12.5,16.6666667 C14.8011865,16.6666667 16.6666667,14.8011865 16.6666667,12.5 C16.6666667,10.1988135 14.8011865,8.33333333 12.5,8.33333333 Z" id="footer-instagram"></path>
                    </g>
                </g>
            </g>
        </g>
    </g>
</svg>