<?xml version="1.0" encoding="UTF-8"?>
<svg width="53px" height="51px" viewBox="0 0 53 51" version="1.1" xmlns="http://www.w3.org/2000/svg" xmlns:xlink="http://www.w3.org/1999/xlink">
    <!-- Generator: Sketch 57.1 (83088) - https://sketch.com -->
    <title>icon-white-check</title>
    <desc>Created with Sketch.</desc>
    <g id="Page-1" stroke="none" stroke-width="1" fill="none" fill-rule="evenodd">
        <g id="Buytolet---Home" transform="translate(-898.000000, -2915.000000)" fill="#FFFFFF" fill-rule="nonzero">
            <g id="icons8-checked" transform="translate(898.000000, 2915.000000)">
                <path d="M25.595171,0 C11.4819937,0 0,11.4393 0,25.5 C0,39.5607 11.4819937,51 25.595171,51 C39.7083483,51 51.1903421,39.5607 51.1903421,25.5 C51.1903421,22.6287 50.6886358,19.8752179 49.8056024,17.2971679 L45.6613858,21.4259772 C45.9301351,22.7417772 46.0713079,24.10515 46.0713079,25.5 C46.0713079,36.74805 36.885201,45.9 25.595171,45.9 C14.3051411,45.9 5.11903421,36.74805 5.11903421,25.5 C5.11903421,14.25195 14.3051411,5.1 25.595171,5.1 C29.7748625,5.1 33.6625693,6.35942103 36.908037,8.51162103 L40.5723441,4.8609375 C36.3542599,1.8162375 31.1877159,0 25.595171,0 Z M49.3806841,3.29707044 L23.0356539,29.5441419 L14.607244,21.1470709 L10.9879271,24.752929 L23.0356539,36.7558581 L53,6.90292956 L49.3806841,3.29707044 Z" id="icon-white-check"></path>
            </g>
        </g>
    </g>
</svg>