<?xml version="1.0" encoding="UTF-8"?>
<svg width="50px" height="46px" viewBox="0 0 50 46" version="1.1" xmlns="http://www.w3.org/2000/svg" xmlns:xlink="http://www.w3.org/1999/xlink">
    <!-- Generator: Sketch 57.1 (83088) - https://sketch.com -->
    <title>icon-money</title>
    <desc>Created with Sketch.</desc>
    <g id="Page-1" stroke="none" stroke-width="1" fill="none" fill-rule="evenodd">
        <g id="Buytolet---Home" transform="translate(-249.000000, -1531.000000)" fill="#E8D7AA" fill-rule="nonzero">
            <g id="icons8-banknotes" transform="translate(249.000000, 1531.000000)">
                <path d="M42.71875,0.84375 L41.75,1.09375 L32.78125,3.5 C32.726563,3.511719 32.679688,3.515625 32.625,3.53125 L10.28125,9.53125 L1.1875,11.96875 L0.21875,12.21875 L0.46875,13.1875 L2.625,21.125 L2.625,21.1875 L6,33.65625 L6,46 L50,46 L50,20 L47.875,20 L42.96875,1.78125 L42.71875,0.84375 Z M41.28125,3.28125 L42.40625,7.5 C42.199219,7.449219 41.984375,7.378906 41.78125,7.34375 C41.148438,7.242188 40.550781,7.183594 40.0625,7.125 C39.574219,7.066406 39.199219,6.960938 39.15625,6.9375 C39.117188,6.914063 38.847656,6.652344 38.53125,6.25 C38.214844,5.847656 37.808594,5.335938 37.3125,4.84375 C37.1875,4.71875 37.050781,4.585938 36.90625,4.46875 L41.28125,3.28125 Z M34.0625,5.34371914 C34.859375,5.339844 35.359375,5.707031 35.90625,6.25 C36.269531,6.613281 36.597656,7.070313 36.9375,7.5 C37.277344,7.929688 37.597656,8.363281 38.15625,8.6875 C38.714844,9.007813 39.253906,9.054688 39.8125,9.125 C40.371094,9.195313 40.953125,9.226563 41.46875,9.3125 C41.984375,9.398438 42.410156,9.527344 42.6875,9.6875 C42.941406,9.835938 43.070313,9.964844 43.15625,10.21875 C43.164063,10.242188 43.179688,10.253906 43.1875,10.28125 L45.78125,20 L33.90625,20 C33.945313,18.9375 33.824219,17.84375 33.53125,16.75 C32.472656,12.800781 29.371094,9.925781 25.84375,9.28125 C25.257813,9.175781 24.664063,9.132813 24.0625,9.15625 C23.460938,9.179688 22.855469,9.273438 22.25,9.4375 C17.828125,10.625 15.207031,15.210938 15.84375,20 L6,20 L6,25.96875 L4.53125,20.53125 C4.496094,20.308594 4.523438,20.136719 4.65625,19.90625 C4.816406,19.628906 5.128906,19.269531 5.53125,18.9375 C5.933594,18.605469 6.425781,18.308594 6.875,17.96875 C7.324219,17.628906 7.742188,17.308594 8.0625,16.75 L8.09375,16.75 C8.417969,16.191406 8.453125,15.664063 8.53125,15.125 C8.609375,14.585938 8.679688,14.027344 8.8125,13.53125 C9.082031,12.539063 9.4375,11.839844 10.8125,11.46875 L33.15625,5.46875 C33.5,5.375 33.796875,5.34371914 34.0625,5.34371914 Z M24.125,11.125 C27.371094,11.019531 30.578125,13.488281 31.59375,17.28125 C31.839844,18.203125 31.945313,19.117188 31.90625,20 L17.875,20 C17.214844,15.992188 19.328125,12.261719 22.75,11.34375 C23.210938,11.21875 23.660156,11.140625 24.125,11.125 Z M38.96875,12.3125 C37.046875,12.3125 35.46875,13.890625 35.46875,15.8125 C35.46875,17.734375 37.046875,19.3125 38.96875,19.3125 C40.890625,19.3125 42.46875,17.734375 42.46875,15.8125 C42.46875,13.890625 40.890625,12.3125 38.96875,12.3125 Z M7.03125,12.5 C6.964844,12.671875 6.921875,12.832031 6.875,13 C6.691406,13.675781 6.636719,14.304688 6.5625,14.8125 C6.488281,15.320313 6.367188,15.710938 6.34375,15.75 C6.320313,15.792969 6.046875,16.078125 5.65625,16.375 C5.265625,16.671875 4.777344,17 4.28125,17.40625 C4.113281,17.542969 3.945313,17.6875 3.78125,17.84375 L2.65625,13.65625 L7.03125,12.5 Z M38.96875,14.3125 C39.808594,14.3125 40.46875,14.972656 40.46875,15.8125 C40.46875,16.652344 39.808594,17.3125 38.96875,17.3125 C38.128906,17.3125 37.46875,16.652344 37.46875,15.8125 C37.46875,14.972656 38.128906,14.3125 38.96875,14.3125 Z M8,22 L12.53125,22 C12.421875,22.148438 12.339844,22.316406 12.25,22.46875 C11.898438,23.074219 11.640625,23.6875 11.4375,24.15625 C11.234375,24.625 11.03125,24.9375 11,24.96875 C10.964844,25.003906 10.644531,25.222656 10.1875,25.40625 C9.730469,25.589844 9.175781,25.800781 8.59375,26.0625 C8.398438,26.152344 8.199219,26.269531 8,26.375 L8,22 Z M16.4375,22 L39.5625,22 C40.988281,22 41.515625,22.578125 42.03125,23.46875 C42.289063,23.914063 42.503906,24.4375 42.71875,24.9375 C42.933594,25.4375 43.105469,25.949219 43.5625,26.40625 C44.015625,26.859375 44.542969,27.039063 45.0625,27.25 C45.582031,27.460938 46.117188,27.660156 46.59375,27.875 C47.070313,28.089844 47.460938,28.335938 47.6875,28.5625 C47.914063,28.789063 48,28.929688 48,29.25 L48,39.25 C48,39.390625 47.988281,39.417969 47.875,39.53125 C47.761719,39.644531 47.5,39.796875 47.1875,39.9375 C46.875,40.078125 46.527344,40.226563 46.15625,40.375 C45.785156,40.523438 45.378906,40.652344 45,41.03125 C44.617188,41.414063 44.496094,41.773438 44.34375,42.125 C44.191406,42.476563 44.039063,42.839844 43.875,43.125 C43.542969,43.695313 43.320313,44 42.4375,44 L13.5625,44 C12.679688,44 12.457031,43.695313 12.125,43.125 C11.960938,42.839844 11.808594,42.480469 11.65625,42.125 C11.503906,41.769531 11.382813,41.414063 11,41.03125 C10.621094,40.652344 10.214844,40.523438 9.84375,40.375 C9.472656,40.226563 9.125,40.078125 8.8125,39.9375 C8.5,39.796875 8.238281,39.644531 8.125,39.53125 C8.011719,39.417969 8,39.390625 8,39.25 L8,33.5 L8.03125,33.5 L8,33.375 L8,29.25 C8,28.929688 8.085938,28.789063 8.3125,28.5625 C8.539063,28.335938 8.929688,28.089844 9.40625,27.875 C9.882813,27.660156 10.417969,27.460938 10.9375,27.25 C11.457031,27.039063 11.984375,26.859375 12.4375,26.40625 C12.894531,25.949219 13.0625,25.4375 13.28125,24.9375 C13.5,24.4375 13.710938,23.914063 13.96875,23.46875 C14.484375,22.578125 15.011719,22 16.4375,22 Z M43.46875,22 L48,22 L48,26.375 C47.804688,26.269531 47.601563,26.152344 47.40625,26.0625 C46.824219,25.800781 46.269531,25.589844 45.8125,25.40625 C45.355469,25.222656 45.035156,25.003906 45,24.96875 C44.96875,24.9375 44.765625,24.625 44.5625,24.15625 C44.359375,23.6875 44.101563,23.074219 43.75,22.46875 C43.660156,22.316406 43.578125,22.148438 43.46875,22 Z M28,23 C22.972656,23 19,27.550781 19,33 C19,38.449219 22.972656,43 28,43 C33.027344,43 37,38.449219 37,33 C37,27.550781 33.027344,23 28,23 Z M28,25 C31.808594,25 35,28.511719 35,33 C35,37.488281 31.808594,41 28,41 C24.191406,41 21,37.488281 21,33 C21,28.511719 24.191406,25 28,25 Z M13.5,30 C11.578125,30 10,31.578125 10,33.5 C10,35.421875 11.578125,37 13.5,37 C15.421875,37 17,35.421875 17,33.5 C17,31.578125 15.421875,30 13.5,30 Z M42.5,30 C40.578125,30 39,31.578125 39,33.5 C39,35.421875 40.578125,37 42.5,37 C44.421875,37 46,35.421875 46,33.5 C46,31.578125 44.421875,30 42.5,30 Z M13.5,32 C14.339844,32 15,32.660156 15,33.5 C15,34.339844 14.339844,35 13.5,35 C12.660156,35 12,34.339844 12,33.5 C12,32.660156 12.660156,32 13.5,32 Z M42.5,32 C43.339844,32 44,32.660156 44,33.5 C44,34.339844 43.339844,35 42.5,35 C41.660156,35 41,34.339844 41,33.5 C41,32.660156 41.660156,32 42.5,32 Z M8,41.78125 C8.410156,41.964844 8.792969,42.097656 9.09375,42.21875 C9.398438,42.34375 9.605469,42.480469 9.5625,42.4375 C9.519531,42.394531 9.671875,42.617188 9.8125,42.9375 C9.9375,43.226563 10.097656,43.605469 10.3125,44 L8,44 L8,41.78125 Z M48,41.78125 L48,44 L45.6875,44 C45.902344,43.605469 46.0625,43.226563 46.1875,42.9375 C46.328125,42.617188 46.480469,42.394531 46.4375,42.4375 C46.394531,42.480469 46.597656,42.34375 46.90625,42.21875 C47.207031,42.097656 47.589844,41.964844 48,41.78125 Z" id="icon-money"></path>
            </g>
        </g>
    </g>
</svg>