<?xml version="1.0" encoding="UTF-8"?>
<svg width="37px" height="42px" viewBox="0 0 37 42" version="1.1" xmlns="http://www.w3.org/2000/svg" xmlns:xlink="http://www.w3.org/1999/xlink">
    <!-- Generator: Sketch 57.1 (83088) - https://sketch.com -->
    <title>icon-contact</title>
    <desc>Created with Sketch.</desc>
    <g id="Page-1" stroke="none" stroke-width="1" fill="none" fill-rule="evenodd">
        <g id="Buytolet---Home" transform="translate(-256.000000, -704.000000)" fill="#142533" fill-rule="nonzero">
            <g id="Signup-CTA" transform="translate(0.000000, 679.000000)">
                <g id="Group-4" transform="translate(256.000000, 25.000000)">
                    <g id="icons8-mobile_email">
                        <path d="M5.28571429,0 C2.38743416,0 0,2.37130285 0,5.25 L0,36.75 C0,39.6286975 2.38743416,42 5.28571429,42 L22.9047619,42 C25.8030424,42 28.1904762,39.6286975 28.1904762,36.75 L28.1904762,28 L37,28 L37,8.75 L28.1904762,8.75 L28.1904762,5.25 C28.1904762,2.37130285 25.8030424,0 22.9047619,0 L5.28571429,0 Z M5.28571429,3.5 L22.9047619,3.5 C23.900291,3.5 24.6666667,4.26119715 24.6666667,5.25 L24.6666667,8.75 L8.80952381,8.75 L8.80952381,10.5 L8.80952381,28 L24.6666667,28 L24.6666667,36.75 C24.6666667,37.7388025 23.900291,38.5 22.9047619,38.5 L5.28571429,38.5 C4.29018524,38.5 3.52380952,37.7388025 3.52380952,36.75 L3.52380952,5.25 C3.52380952,4.26119715 4.29018524,3.5 5.28571429,3.5 Z M14.8626304,12.25 L30.9468934,12.25 L22.9047619,17.1923833 L14.8626304,12.25 Z M12.3333333,14.8066415 L22.9047619,21.3076168 L33.4761905,14.8066415 L33.4761905,24.5 L12.3333333,24.5 L12.3333333,14.8066415 Z M14.0952381,33.25 C13.1244286,33.25 12.3333333,34.03575 12.3333333,35 C12.3333333,35.96425 13.1244286,36.75 14.0952381,36.75 C15.0660476,36.75 15.8571429,35.96425 15.8571429,35 C15.8571429,34.03575 15.0660476,33.25 14.0952381,33.25 Z" id="icon-contact"></path>
                    </g>
                </g>
            </g>
        </g>
    </g>
</svg>